<?xml version="1.0" encoding="utf-8"?>
<svg version="1.1" id="Layer_1" xmlns="http://www.w3.org/2000/svg" xmlns:xlink="http://www.w3.org/1999/xlink" x="0px" y="0px"
	 viewBox="0 0 200 200" style="enable-background:new 0 0 200 200;" xml:space="preserve">
<style type="text/css">
	.st0{fill:#7B3A7F;}
	.st1{fill:#944188;}
	.st2{fill:#4E316F;}
	.st3{fill:#9F448D;}
	.st4{fill:#6E3A7C;}
	.st5{fill:#7F3E81;}
	.st6{fill:#874085;}
	.st7{fill:#683779;}
	.st8{fill:#372F68;}
	.st9{fill:#4B3570;}
	.st10{fill:#4E3470;}
</style>
<g id="XMLID_1_">
	<path id="XMLID_311_" class="st0" d="M138,75.2c-1.4-1.4-3.6-4.8-8.2-4.6c12.7,17.1,8.5,36,7.3,54.5c-0.7,10.8-2.4,21.7-2.3,32.5
		c0.3,19.7,5.3,27.2,22.1,36.7c-16.6,6.6-38.8,3.9-52-6c-7.8-5.9-10.6-13.2-9.2-22.6c2.2-14.3,9.7-26.6,15.5-39.6
		c3-6.7,6.4-13.1,9-19.9c9.1-23.4,4.6-34.1-20.9-46.3c15-1.6,27.9-1.8,40.8,1.7C146.5,68.8,146.1,71.6,138,75.2z"/>
	<path id="XMLID_309_" class="st1" d="M138,75.2c6.3-3.7,4.6-8.6,2.1-13.5c37,7.4,49.3,35.1,28.9,65.5c-4.1,6.1-8.6,11.9-12.9,17.8
		c-7.8,10.8-7.8,10.8-8.2,23.1c-5.2-3.8-5.6-8.8-5.9-13.9c-0.7-12.9,2.2-25.5,3.4-38.3C146.8,101.7,147.9,87.6,138,75.2z"/>
	<path id="XMLID_303_" class="st2" d="M77.5,49.7c-23.9-3.4-33.7,14.5-47.4,25.7c-1.8,1.5-1.1,6.3-1,9.5c0.2,5-0.9,8.9-7.1,11.3
		c0.9-7.9,1.4-15.5,3.2-21.8c1-3.7,7.1-7,10.2-9.4c0,0,10.6-7.8,9.3-10.5c-0.8-1.6-3.8-2.5-6-3.1c-7.3-1.9-14.7-1.1-22.3,0.3
		C25.9,38.2,40,38.2,55,39.4c-2.5-12,1.3-20.9,12.3-26.9c5.1-2.8,7.2-2.5,7.2,3.7C74.4,27.1,73.2,38.1,77.5,49.7z"/>
	<path id="XMLID_300_" class="st3" d="M156.6,35.5c34.5,5.2,49.8,35.1,31.7,66c-3.8-21.2-16.8-34.3-34.1-43.9
		C157.2,50.4,154.5,42.7,156.6,35.5z"/>
	<path id="XMLID_295_" class="st4" d="M97.5,67.5c10.4,4,13.4,11.3,15.1,19.2c1.7,8.1,1.4,16.4-0.4,24.5
		c-3.2,14.6-3.2,14.8-18.9,15.2c-13,0.3-21.7,6.7-27.3,18.6c-4.5-6.5-2.5-13-3.9-18.9c-0.9-3.6,2.3-3.1,4.7-3.2
		c4.8-0.2,9.7,0.3,14.3-0.8c19.4-4.4,29.4-24.2,21.8-43C101.7,75.8,100,72.6,97.5,67.5z"/>
	<path id="XMLID_293_" class="st5" d="M93.7,51.3C93.4,28.2,123,9.3,138.3,10c9.6,0.5,16.8,4.3,21.7,13.6
		C134.9,25.5,111.5,29.7,93.7,51.3z"/>
	<path id="XMLID_292_" class="st6" d="M156.6,35.5c1.4,7.6,6.7,15.6-2.5,22.1c-17.1-5-34.3-8.4-52.7-4.4
		C108.6,38.5,135.5,30.1,156.6,35.5z"/>
	<path id="XMLID_291_" class="st7" d="M86.3,50.4c-9.1-14.9-8.3-29.5,1-39.6c7.9-8.7,19.4-10.6,32.3-5C105.3,18,90,29.1,86.3,50.4z"
		/>
	<path id="XMLID_286_" class="st8" d="M35.2,160.4c-12.8-9.1-21.3-21.8-30.6-33.8c-1.9-2.5-1.8-4.1,1.3-5c4.4-1.3,8.4-4.4,14.4-3.4
		c-2.8,7.4-3.4,14.3,1.4,21.3c2.9,4.2,6.5,6.1,11,7.2c1.2,1.5,5.5-0.1,4.1,3.9c-3.5,1.9-0.6,3.5,0.2,5.3
		C37.7,158,39,160.2,35.2,160.4z"/>
	<path id="XMLID_278_" class="st9" d="M35.2,160.4c0.6-1.5,1.2-2.9,1.9-4.4c10.7,11.9,11.2,11.9,22,1.2c4.3,6.6,2.7,13.8,3.7,21.9
		C51.9,173.6,42.6,168.4,35.2,160.4z"/>
	<path id="XMLID_263_" class="st10" d="M45.8,88c-4.1-14.2-4-14.3,13.5-12.9C54.8,79.4,50.2,83.8,45.8,88z"/>
	<path id="XMLID_260_" class="st9" d="M36.9,150.7c-1.4-1.3-2.8-2.6-4.1-3.9c5-0.4,10.1,0.7,14.8-2.2c1.7-1.1,3.7-3.8,6-1
		c1.4,1.7-0.2,3.7-1,5.4c-0.9,2-1.3,4.5-4.8,3.7C44.1,151.9,40.5,151.4,36.9,150.7z"/>
</g>
</svg>
